<?xml version="1.0" encoding="UTF-8" standalone="no"?>
<!DOCTYPE svg PUBLIC "-//W3C//DTD SVG 1.1//EN"
 "http://www.w3.org/Graphics/SVG/1.1/DTD/svg11.dtd">
<!-- Generated by graphviz version 2.43.0 (0)
 -->
<!-- Title: G Pages: 1 -->
<svg width="562pt" height="723pt"
 viewBox="0.00 0.00 561.60 722.60" xmlns="http://www.w3.org/2000/svg" xmlns:xlink="http://www.w3.org/1999/xlink">
<g id="graph0" class="graph" transform="scale(1 1) rotate(0) translate(10.8 711.8)">
<title>G</title>
<polygon fill="white" stroke="transparent" points="-10.8,10.8 -10.8,-711.8 550.8,-711.8 550.8,10.8 -10.8,10.8"/>
<!-- s -->
<g id="node1" class="node">
<title>s</title>
<path fill="none" stroke="black" stroke-width="1.6" d="M270.5,-701C270.5,-701 135.5,-701 135.5,-701 129.5,-701 123.5,-695 123.5,-689 123.5,-689 123.5,-675 123.5,-675 123.5,-669 129.5,-663 135.5,-663 135.5,-663 270.5,-663 270.5,-663 276.5,-663 282.5,-669 282.5,-675 282.5,-675 282.5,-689 282.5,-689 282.5,-695 276.5,-701 270.5,-701"/>
<text text-anchor="middle" x="203" y="-685.6" font-family="Liberation Serif" font-size="13.00">Define Security and</text>
<text text-anchor="middle" x="203" y="-671.6" font-family="Liberation Serif" font-size="13.00">Authorisation Properties</text>
</g>
<!-- a -->
<g id="node2" class="node">
<title>a</title>
<polygon fill="none" stroke="black" stroke-width="1.3" points="317,-634 89,-634 89,-598 317,-598 317,-634"/>
<text text-anchor="middle" x="203" y="-612.6" font-family="Liberation Serif" font-size="13.00">Define Threat and Failure Conditions</text>
</g>
<!-- s&#45;&gt;a -->
<g id="edge1" class="edge">
<title>s&#45;&gt;a</title>
<path fill="none" stroke="black" stroke-width="1.1" d="M203,-662.83C203,-656.35 203,-648.93 203,-641.98"/>
<polygon fill="black" stroke="black" stroke-width="1.1" points="205.63,-641.61 203,-634.11 200.38,-641.61 205.63,-641.61"/>
</g>
<!-- b -->
<g id="node3" class="node">
<title>b</title>
<polygon fill="none" stroke="black" stroke-width="1.3" points="302,-569 104,-569 104,-533 302,-533 302,-569"/>
<text text-anchor="middle" x="203" y="-547.6" font-family="Liberation Serif" font-size="13.00">Implement Validation Scenarios</text>
</g>
<!-- a&#45;&gt;b -->
<g id="edge2" class="edge">
<title>a&#45;&gt;b</title>
<path fill="none" stroke="black" stroke-width="1.1" d="M203,-597.78C203,-591.4 203,-584.01 203,-577.06"/>
<polygon fill="black" stroke="black" stroke-width="1.1" points="205.63,-576.69 203,-569.19 200.38,-576.69 205.63,-576.69"/>
</g>
<!-- c1 -->
<g id="node4" class="node">
<title>c1</title>
<polygon fill="none" stroke="black" stroke-width="1.3" points="206,-503 0,-503 0,-467 206,-467 206,-503"/>
<text text-anchor="middle" x="103" y="-481.6" font-family="Liberation Serif" font-size="13.00">Execute Valid Consent Workflow</text>
</g>
<!-- b&#45;&gt;c1 -->
<g id="edge3" class="edge">
<title>b&#45;&gt;c1</title>
<path fill="none" stroke="black" stroke-width="1.1" d="M176.2,-532.85C163.98,-525.03 149.39,-515.69 136.46,-507.41"/>
<polygon fill="black" stroke="black" stroke-width="1.1" points="137.6,-505.03 129.87,-503.2 134.77,-509.45 137.6,-505.03"/>
</g>
<!-- c2 -->
<g id="node5" class="node">
<title>c2</title>
<polygon fill="none" stroke="black" stroke-width="1.3" points="376.5,-504 231.5,-504 231.5,-466 376.5,-466 376.5,-504"/>
<text text-anchor="middle" x="304" y="-488.6" font-family="Liberation Serif" font-size="13.00">Execute Negative and</text>
<text text-anchor="middle" x="304" y="-474.6" font-family="Liberation Serif" font-size="13.00">Adversarial Scenarios</text>
</g>
<!-- b&#45;&gt;c2 -->
<g id="edge4" class="edge">
<title>b&#45;&gt;c2</title>
<path fill="none" stroke="black" stroke-width="1.1" d="M230.07,-532.85C242.01,-525.28 256.2,-516.29 268.94,-508.22"/>
<polygon fill="black" stroke="black" stroke-width="1.1" points="270.52,-510.33 275.45,-504.09 267.71,-505.89 270.52,-510.33"/>
</g>
<!-- d -->
<g id="node6" class="node">
<title>d</title>
<polygon fill="none" stroke="black" stroke-width="1.3" points="315.5,-437 90.5,-437 90.5,-401 315.5,-401 315.5,-437"/>
<text text-anchor="middle" x="203" y="-415.6" font-family="Liberation Serif" font-size="13.00">Collect Decision and Audit Evidence</text>
</g>
<!-- c1&#45;&gt;d -->
<g id="edge5" class="edge">
<title>c1&#45;&gt;d</title>
<path fill="none" stroke="black" stroke-width="1.1" d="M129.8,-466.85C142.02,-459.03 156.61,-449.69 169.54,-441.41"/>
<polygon fill="black" stroke="black" stroke-width="1.1" points="171.23,-443.45 176.13,-437.2 168.4,-439.03 171.23,-443.45"/>
</g>
<!-- c2&#45;&gt;d -->
<g id="edge6" class="edge">
<title>c2&#45;&gt;d</title>
<path fill="none" stroke="black" stroke-width="1.1" d="M275.33,-465.83C263.21,-458.15 249.02,-449.16 236.43,-441.18"/>
<polygon fill="black" stroke="black" stroke-width="1.1" points="237.75,-438.91 230.01,-437.11 234.94,-443.35 237.75,-438.91"/>
</g>
<!-- cmp -->
<g id="node7" class="node">
<title>cmp</title>
<polygon fill="none" stroke="black" stroke-width="1.3" points="279.5,-372 126.5,-372 126.5,-334 279.5,-334 279.5,-372"/>
<text text-anchor="middle" x="203" y="-356.6" font-family="Liberation Serif" font-size="13.00">Compare Observed and</text>
<text text-anchor="middle" x="203" y="-342.6" font-family="Liberation Serif" font-size="13.00">Expected Decisions</text>
</g>
<!-- d&#45;&gt;cmp -->
<g id="edge7" class="edge">
<title>d&#45;&gt;cmp</title>
<path fill="none" stroke="black" stroke-width="1.1" d="M203,-400.85C203,-394.32 203,-386.74 203,-379.6"/>
<polygon fill="black" stroke="black" stroke-width="1.1" points="205.63,-379.59 203,-372.09 200.38,-379.59 205.63,-379.59"/>
</g>
<!-- e1 -->
<g id="node8" class="node">
<title>e1</title>
<polygon fill="none" stroke="black" stroke-width="1.3" points="201,-293 3,-293 3,-241 201,-241 201,-293"/>
<text text-anchor="middle" x="102" y="-277.6" font-family="Liberation Serif" font-size="13.00">Evaluate Security Properties</text>
<text text-anchor="middle" x="102" y="-263.6" font-family="Liberation Serif" font-size="13.00">(soundness, denial, threshold,</text>
<text text-anchor="middle" x="102" y="-249.6" font-family="Liberation Serif" font-size="13.00">policy scope, audit consistency)</text>
</g>
<!-- cmp&#45;&gt;e1 -->
<g id="edge8" class="edge">
<title>cmp&#45;&gt;e1</title>
<path fill="none" stroke="black" stroke-width="1.1" d="M181.08,-333.77C168.6,-323.39 152.63,-310.11 138.32,-298.21"/>
<polygon fill="black" stroke="black" stroke-width="1.1" points="139.75,-295.98 132.3,-293.2 136.39,-300.02 139.75,-295.98"/>
</g>
<!-- e2 -->
<g id="node9" class="node">
<title>e2</title>
<polygon fill="none" stroke="black" stroke-width="1.3" points="383.5,-286 226.5,-286 226.5,-248 383.5,-248 383.5,-286"/>
<text text-anchor="middle" x="305" y="-270.6" font-family="Liberation Serif" font-size="13.00">Evaluate Functional and</text>
<text text-anchor="middle" x="305" y="-256.6" font-family="Liberation Serif" font-size="13.00">Practical Performance</text>
</g>
<!-- cmp&#45;&gt;e2 -->
<g id="edge9" class="edge">
<title>cmp&#45;&gt;e2</title>
<path fill="none" stroke="black" stroke-width="1.1" d="M224.88,-333.98C240.1,-321.44 260.53,-304.62 276.95,-291.1"/>
<polygon fill="black" stroke="black" stroke-width="1.1" points="278.68,-293.07 282.8,-286.28 275.34,-289.02 278.68,-293.07"/>
</g>
<!-- q -->
<g id="node10" class="node">
<title>q</title>
<polygon fill="none" stroke="black" stroke-width="1.3" points="203,-212 140,-178 203,-144 266,-178 203,-212"/>
<text text-anchor="middle" x="203" y="-181.6" font-family="Liberation Serif" font-size="13.00">Properties</text>
<text text-anchor="middle" x="203" y="-167.6" font-family="Liberation Serif" font-size="13.00">Satisfied?</text>
</g>
<!-- e1&#45;&gt;q -->
<g id="edge10" class="edge">
<title>e1&#45;&gt;q</title>
<path fill="none" stroke="black" stroke-width="1.1" d="M131.21,-240.84C144.45,-229.43 160.08,-215.97 173.36,-204.53"/>
<polygon fill="black" stroke="black" stroke-width="1.1" points="175.32,-206.31 179.29,-199.43 171.89,-202.33 175.32,-206.31"/>
</g>
<!-- e2&#45;&gt;q -->
<g id="edge11" class="edge">
<title>e2&#45;&gt;q</title>
<path fill="none" stroke="black" stroke-width="1.1" d="M283.87,-247.97C269.11,-235.38 249.19,-218.4 232.82,-204.44"/>
<polygon fill="black" stroke="black" stroke-width="1.1" points="234.38,-202.31 226.97,-199.44 230.97,-206.31 234.38,-202.31"/>
</g>
<!-- y -->
<g id="node11" class="node">
<title>y</title>
<path fill="none" stroke="black" stroke-width="1.3" d="M277,-102C277,-102 79,-102 79,-102 73,-102 67,-96 67,-90 67,-90 67,-78 67,-78 67,-72 73,-66 79,-66 79,-66 277,-66 277,-66 283,-66 289,-72 289,-78 289,-78 289,-90 289,-90 289,-96 283,-102 277,-102"/>
<text text-anchor="middle" x="178" y="-80.6" font-family="Liberation Serif" font-size="13.00">Document Evidence and Limitations</text>
</g>
<!-- q&#45;&gt;y -->
<g id="edge12" class="edge">
<title>q&#45;&gt;y</title>
<path fill="none" stroke="black" stroke-width="1.1" d="M195.16,-148.14C191.8,-135.78 187.92,-121.49 184.69,-109.63"/>
<polygon fill="black" stroke="black" stroke-width="1.1" points="187.18,-108.79 182.68,-102.24 182.12,-110.16 187.18,-108.79"/>
<text text-anchor="middle" x="200" y="-120.4" font-family="Liberation Serif" font-size="12.00"> Yes</text>
</g>
<!-- n -->
<g id="node12" class="node">
<title>n</title>
<polygon fill="none" stroke="black" stroke-width="1.3" points="446,-103 314,-103 314,-65 446,-65 446,-103"/>
<text text-anchor="middle" x="380" y="-87.6" font-family="Liberation Serif" font-size="13.00">Identify Security or</text>
<text text-anchor="middle" x="380" y="-73.6" font-family="Liberation Serif" font-size="13.00">Functional Failure</text>
</g>
<!-- q&#45;&gt;n -->
<g id="edge13" class="edge">
<title>q&#45;&gt;n</title>
<path fill="none" stroke="black" stroke-width="1.1" d="M219.25,-152.48C228.62,-140.13 241.42,-125.93 256,-117 260.96,-113.96 282.59,-108.06 306.44,-102.14"/>
<polygon fill="black" stroke="black" stroke-width="1.1" points="307.24,-104.65 313.89,-100.3 305.98,-99.55 307.24,-104.65"/>
<text text-anchor="middle" x="265.5" y="-120.4" font-family="Liberation Serif" font-size="12.00"> No</text>
</g>
<!-- r -->
<g id="node13" class="node">
<title>r</title>
<polygon fill="none" stroke="black" stroke-width="1.3" points="443.5,-36 316.5,-36 316.5,0 443.5,0 443.5,-36"/>
<text text-anchor="middle" x="380" y="-14.6" font-family="Liberation Serif" font-size="13.00">Refine Framework</text>
</g>
<!-- n&#45;&gt;r -->
<g id="edge14" class="edge">
<title>n&#45;&gt;r</title>
<path fill="none" stroke="black" stroke-width="1.1" d="M380,-64.83C380,-58.35 380,-50.93 380,-43.98"/>
<polygon fill="black" stroke="black" stroke-width="1.1" points="382.63,-43.61 380,-36.11 377.38,-43.61 382.63,-43.61"/>
</g>
<!-- r&#45;&gt;b -->
<g id="edge15" class="edge">
<title>r&#45;&gt;b</title>
<path fill="none" stroke="black" stroke-width="1.1" stroke-dasharray="5,2" d="M427.18,-36.09C439.74,-43.05 451.8,-52.48 459,-65 557.47,-236.29 523.76,-359.51 389,-504 377.22,-516.63 344.38,-526.59 309.51,-533.96"/>
<polygon fill="black" stroke="black" stroke-width="1.1" points="308.86,-531.41 302.05,-535.49 309.92,-536.55 308.86,-531.41"/>
<text text-anchor="middle" x="524" y="-310.4" font-family="Liberation Serif" font-size="12.00"> iterate</text>
</g>
</g>
</svg>
