<?xml version="1.0" encoding="UTF-8" standalone="no"?>
<!DOCTYPE svg PUBLIC "-//W3C//DTD SVG 1.1//EN"
 "http://www.w3.org/Graphics/SVG/1.1/DTD/svg11.dtd">
<!-- Generated by graphviz version 2.43.0 (0)
 -->
<!-- Title: G Pages: 1 -->
<svg width="417pt" height="819pt"
 viewBox="0.00 0.00 417.10 818.60" xmlns="http://www.w3.org/2000/svg" xmlns:xlink="http://www.w3.org/1999/xlink">
<g id="graph0" class="graph" transform="scale(1 1) rotate(0) translate(10.8 807.8)">
<title>G</title>
<polygon fill="white" stroke="transparent" points="-10.8,10.8 -10.8,-807.8 406.3,-807.8 406.3,10.8 -10.8,10.8"/>
<!-- s -->
<g id="node1" class="node">
<title>s</title>
<path fill="none" stroke="black" stroke-width="1.6" d="M279.5,-797C279.5,-797 148.5,-797 148.5,-797 142.5,-797 136.5,-791 136.5,-785 136.5,-785 136.5,-773 136.5,-773 136.5,-767 142.5,-761 148.5,-761 148.5,-761 279.5,-761 279.5,-761 285.5,-761 291.5,-767 291.5,-773 291.5,-773 291.5,-785 291.5,-785 291.5,-791 285.5,-797 279.5,-797"/>
<text text-anchor="middle" x="214" y="-775.6" font-family="Liberation Serif" font-size="13.00">Patient Creates Consent</text>
</g>
<!-- a -->
<g id="node2" class="node">
<title>a</title>
<polygon fill="none" stroke="black" stroke-width="1.3" points="280.5,-732 147.5,-732 147.5,-696 280.5,-696 280.5,-732"/>
<text text-anchor="middle" x="214" y="-710.6" font-family="Liberation Serif" font-size="13.00">Collect Patient DID</text>
</g>
<!-- s&#45;&gt;a -->
<g id="edge1" class="edge">
<title>s&#45;&gt;a</title>
<path fill="none" stroke="black" stroke-width="1.1" d="M214,-760.78C214,-754.4 214,-747.01 214,-740.06"/>
<polygon fill="black" stroke="black" stroke-width="1.1" points="216.63,-739.69 214,-732.19 211.38,-739.69 216.63,-739.69"/>
</g>
<!-- b -->
<g id="node3" class="node">
<title>b</title>
<polygon fill="none" stroke="black" stroke-width="1.3" points="299.5,-667 128.5,-667 128.5,-631 299.5,-631 299.5,-667"/>
<text text-anchor="middle" x="214" y="-645.6" font-family="Liberation Serif" font-size="13.00">Specify Authorised Doctor</text>
</g>
<!-- a&#45;&gt;b -->
<g id="edge2" class="edge">
<title>a&#45;&gt;b</title>
<path fill="none" stroke="black" stroke-width="1.1" d="M214,-695.78C214,-689.4 214,-682.01 214,-675.06"/>
<polygon fill="black" stroke="black" stroke-width="1.1" points="216.63,-674.69 214,-667.19 211.38,-674.69 216.63,-674.69"/>
</g>
<!-- c -->
<g id="node4" class="node">
<title>c</title>
<polygon fill="none" stroke="black" stroke-width="1.3" points="290.5,-602 137.5,-602 137.5,-566 290.5,-566 290.5,-602"/>
<text text-anchor="middle" x="214" y="-580.6" font-family="Liberation Serif" font-size="13.00">Specify Guardian DIDs</text>
</g>
<!-- b&#45;&gt;c -->
<g id="edge3" class="edge">
<title>b&#45;&gt;c</title>
<path fill="none" stroke="black" stroke-width="1.1" d="M214,-630.78C214,-624.4 214,-617.01 214,-610.06"/>
<polygon fill="black" stroke="black" stroke-width="1.1" points="216.63,-609.69 214,-602.19 211.38,-609.69 216.63,-609.69"/>
</g>
<!-- d -->
<g id="node5" class="node">
<title>d</title>
<polygon fill="none" stroke="black" stroke-width="1.3" points="314.5,-537 113.5,-537 113.5,-501 314.5,-501 314.5,-537"/>
<text text-anchor="middle" x="214" y="-515.6" font-family="Liberation Serif" font-size="13.00">Specify Purpose and Data Scope</text>
</g>
<!-- c&#45;&gt;d -->
<g id="edge4" class="edge">
<title>c&#45;&gt;d</title>
<path fill="none" stroke="black" stroke-width="1.1" d="M214,-565.78C214,-559.4 214,-552.01 214,-545.06"/>
<polygon fill="black" stroke="black" stroke-width="1.1" points="216.63,-544.69 214,-537.19 211.38,-544.69 216.63,-544.69"/>
</g>
<!-- e -->
<g id="node6" class="node">
<title>e</title>
<polygon fill="none" stroke="black" stroke-width="1.3" points="294.5,-472 133.5,-472 133.5,-436 294.5,-436 294.5,-472"/>
<text text-anchor="middle" x="214" y="-450.6" font-family="Liberation Serif" font-size="13.00">Specify Consent Validity</text>
</g>
<!-- d&#45;&gt;e -->
<g id="edge5" class="edge">
<title>d&#45;&gt;e</title>
<path fill="none" stroke="black" stroke-width="1.1" d="M214,-500.78C214,-494.4 214,-487.01 214,-480.06"/>
<polygon fill="black" stroke="black" stroke-width="1.1" points="216.63,-479.69 214,-472.19 211.38,-479.69 216.63,-479.69"/>
</g>
<!-- q -->
<g id="node7" class="node">
<title>q</title>
<polygon fill="none" stroke="black" stroke-width="1.3" points="214,-407 87,-373 214,-339 341,-373 214,-407"/>
<text text-anchor="middle" x="214" y="-376.6" font-family="Liberation Serif" font-size="13.00">Consent Specification</text>
<text text-anchor="middle" x="214" y="-362.6" font-family="Liberation Serif" font-size="13.00">Valid?</text>
</g>
<!-- e&#45;&gt;q -->
<g id="edge6" class="edge">
<title>e&#45;&gt;q</title>
<path fill="none" stroke="black" stroke-width="1.1" d="M214,-435.86C214,-429.66 214,-422.37 214,-415"/>
<polygon fill="black" stroke="black" stroke-width="1.1" points="216.63,-414.53 214,-407.03 211.38,-414.53 216.63,-414.53"/>
</g>
<!-- y0 -->
<g id="node8" class="node">
<title>y0</title>
<polygon fill="none" stroke="black" stroke-width="1.3" points="215,-298 3,-298 3,-262 215,-262 215,-298"/>
<text text-anchor="middle" x="109" y="-276.6" font-family="Liberation Serif" font-size="13.00">Define Authorisation Requirement</text>
</g>
<!-- q&#45;&gt;y0 -->
<g id="edge7" class="edge">
<title>q&#45;&gt;y0</title>
<path fill="none" stroke="black" stroke-width="1.1" d="M184.75,-346.65C169,-333 149.75,-316.32 134.6,-303.19"/>
<polygon fill="black" stroke="black" stroke-width="1.1" points="136.19,-301.09 128.8,-298.16 132.75,-305.06 136.19,-301.09"/>
<text text-anchor="middle" x="169" y="-315.4" font-family="Liberation Serif" font-size="12.00"> Yes</text>
</g>
<!-- n -->
<g id="node13" class="node">
<title>n</title>
<path fill="none" stroke="black" stroke-width="1.3" d="M383.5,-298C383.5,-298 252.5,-298 252.5,-298 246.5,-298 240.5,-292 240.5,-286 240.5,-286 240.5,-274 240.5,-274 240.5,-268 246.5,-262 252.5,-262 252.5,-262 383.5,-262 383.5,-262 389.5,-262 395.5,-268 395.5,-274 395.5,-274 395.5,-286 395.5,-286 395.5,-292 389.5,-298 383.5,-298"/>
<text text-anchor="middle" x="318" y="-276.6" font-family="Liberation Serif" font-size="13.00">Reject Consent Request</text>
</g>
<!-- q&#45;&gt;n -->
<g id="edge8" class="edge">
<title>q&#45;&gt;n</title>
<path fill="none" stroke="black" stroke-width="1.1" d="M242.97,-346.65C258.57,-333 277.63,-316.32 292.64,-303.19"/>
<polygon fill="black" stroke="black" stroke-width="1.1" points="294.47,-305.08 298.39,-298.16 291.01,-301.12 294.47,-305.08"/>
<text text-anchor="middle" x="290.5" y="-315.4" font-family="Liberation Serif" font-size="12.00"> No</text>
</g>
<!-- y2 -->
<g id="node9" class="node">
<title>y2</title>
<polygon fill="none" stroke="black" stroke-width="1.3" points="197,-233 21,-233 21,-197 197,-197 197,-233"/>
<text text-anchor="middle" x="109" y="-211.6" font-family="Liberation Serif" font-size="13.00">Generate Consent Identifier</text>
</g>
<!-- y0&#45;&gt;y2 -->
<g id="edge9" class="edge">
<title>y0&#45;&gt;y2</title>
<path fill="none" stroke="black" stroke-width="1.1" d="M109,-261.78C109,-255.4 109,-248.01 109,-241.06"/>
<polygon fill="black" stroke="black" stroke-width="1.1" points="111.63,-240.69 109,-233.19 106.38,-240.69 111.63,-240.69"/>
</g>
<!-- y1 -->
<g id="node10" class="node">
<title>y1</title>
<polygon fill="none" stroke="black" stroke-width="1.3" points="218,-168 0,-168 0,-130 218,-130 218,-168"/>
<text text-anchor="middle" x="109" y="-152.6" font-family="Liberation Serif" font-size="13.00">Create Trust&#45;Aware Consent Object</text>
<text text-anchor="middle" x="109" y="-138.6" font-family="Liberation Serif" font-size="13.00">C = (I, A, P, E)</text>
</g>
<!-- y2&#45;&gt;y1 -->
<g id="edge10" class="edge">
<title>y2&#45;&gt;y1</title>
<path fill="none" stroke="black" stroke-width="1.1" d="M109,-196.85C109,-190.32 109,-182.74 109,-175.6"/>
<polygon fill="black" stroke="black" stroke-width="1.1" points="111.63,-175.59 109,-168.09 106.38,-175.59 111.63,-175.59"/>
</g>
<!-- y3 -->
<g id="node11" class="node">
<title>y3</title>
<polygon fill="none" stroke="black" stroke-width="1.3" points="185,-101 33,-101 33,-65 185,-65 185,-101"/>
<text text-anchor="middle" x="109" y="-79.6" font-family="Liberation Serif" font-size="13.00">Persist Consent Record</text>
</g>
<!-- y1&#45;&gt;y3 -->
<g id="edge11" class="edge">
<title>y1&#45;&gt;y3</title>
<path fill="none" stroke="black" stroke-width="1.1" d="M109,-129.83C109,-123.35 109,-115.93 109,-108.98"/>
<polygon fill="black" stroke="black" stroke-width="1.1" points="111.63,-108.61 109,-101.11 106.38,-108.61 111.63,-108.61"/>
</g>
<!-- y4 -->
<g id="node12" class="node">
<title>y4</title>
<path fill="none" stroke="black" stroke-width="1.3" d="M194.5,-36C194.5,-36 23.5,-36 23.5,-36 17.5,-36 11.5,-30 11.5,-24 11.5,-24 11.5,-12 11.5,-12 11.5,-6 17.5,0 23.5,0 23.5,0 194.5,0 194.5,0 200.5,0 206.5,-6 206.5,-12 206.5,-12 206.5,-24 206.5,-24 206.5,-30 200.5,-36 194.5,-36"/>
<text text-anchor="middle" x="109" y="-14.6" font-family="Liberation Serif" font-size="13.00">Record Consent Creation Audit</text>
</g>
<!-- y3&#45;&gt;y4 -->
<g id="edge12" class="edge">
<title>y3&#45;&gt;y4</title>
<path fill="none" stroke="black" stroke-width="1.1" d="M109,-64.78C109,-58.4 109,-51.01 109,-44.06"/>
<polygon fill="black" stroke="black" stroke-width="1.1" points="111.63,-43.69 109,-36.19 106.38,-43.69 111.63,-43.69"/>
</g>
</g>
</svg>
